# xmcd
#
# Track frame offsets:
# 150
# 18345
# 30982
# 48440
# 66515
# 84440
# 105582
# 126012
# 142707
# 156772
# 173902
#
# Disc length: 2810 seconds
#
#
# Revision: 0
# Processed by: cddbd v1.4PL0 Copyright (c) Steve Scherf et al.
# Submitted via: FreeRIP 2.30 
#
DISCID=820af80b
DTITLE=Mississippi Kid - Song From The Silever Sparkle Tele
DYEAR=2003
DGENRE=Rock and Roll
TTITLE0=Mississippi Kid
TTITLE1=Welcome To The Party
TTITLE2=Hey Ho Devil
TTITLE3=Cool Texas Night
TTITLE4=Bathtub Gin
TTITLE5=Pickin At The Cotton
TTITLE6=Electric Guitar
TTITLE7=Freeky Goodness
TTITLE8=Wiggly Jam
TTITLE9=Hickabilly Rock
TTITLE10=Nirvana
EXTD=Good orginal stuff by the Mississippi kid who\n is from Houston Texas
EXTT0=
EXTT1=
EXTT2=
EXTT3=
EXTT4=
EXTT5=
EXTT6=
EXTT7=
EXTT8=
EXTT9=
EXTT10=
PLAYORDER=
